<svg xmlns="http://www.w3.org/2000/svg" width="101" height="36" viewBox="0 0 101 36" fill="none">
<path fill-rule="evenodd" clip-rule="evenodd" d="M59.3082 0.362427H87.7663V8.41937H78.2146V12.5342C75.0619 12.8827 71.948 13.3299 68.8531 13.8966V8.41937H59.3082V0.362427ZM78.2513 18.6803L78.2146 32.9775H68.8531L68.8899 21.2556C71.9803 20.2824 75.1027 19.4257 78.2513 18.6803Z" fill="#00A85A"/>
<path d="M21.2106 0H31.2707V19.9169C31.2707 21.8919 30.9665 23.7605 30.3581 25.5228C29.7646 27.2699 28.8224 28.8043 27.5315 30.126C26.2555 31.4325 24.9127 32.3517 23.5031 32.8834C21.5445 33.6278 19.1927 34 16.4477 34C14.8601 34 13.124 33.8861 11.2396 33.6582C9.37007 33.4303 7.80468 32.9821 6.54347 32.3137C5.28226 31.63 4.12491 30.6653 3.07142 29.4196C2.03278 28.1738 1.32056 26.8901 0.934781 25.5684C0.311594 23.4415 0 21.5576 0 19.9169V0H10.06V20.3954C10.06 22.2185 10.5497 23.6466 11.529 24.6796C12.5231 25.6975 13.8956 26.2064 15.6465 26.2064C17.3825 26.2064 18.7401 25.7051 19.7194 24.7024C20.7136 23.6845 21.2106 22.2489 21.2106 20.3954V0Z" fill="#00A85A"/>
<path fill-rule="evenodd" clip-rule="evenodd" d="M51.7604 27.5751L51.2922 26.1559L59.5262 22.8778L63.0478 32.9589H53.249L51.7604 27.5751ZM49.9385 20.6885C52.5936 19.7242 55.2332 18.8785 57.8703 18.1374L51.6547 0.343994H41.4468L30.0608 32.9589H39.6265L42.3981 23.4974L43.1186 20.5205L46.4485 8.7958L49.7992 20.5205" fill="#00A85A"/>
<path fill-rule="evenodd" clip-rule="evenodd" d="M39.6912 32.7785L42.5852 22.9119C45.4208 22.0779 47.9377 21.406 50.716 20.3968C63.8166 15.6376 76.5473 13.7567 90.4077 13.1801C90.0942 12.7491 89.8099 12.4492 89.6275 12.2196C89.3237 11.8368 88.9309 11.4991 89.5265 11.2199C89.6627 11.1561 90.203 11.2362 90.4077 11.1595C91.5853 12.7296 92.0708 12.2302 94.016 12.0255L92.1397 8.41713C94.7392 8.09227 94.3323 10.8269 96.4697 11.8812C98.5364 12.9006 100.655 10.5369 100.655 13.6131C98.5669 13.7871 96.5351 13.7943 94.449 14.0461C83.0327 15.4251 71.8448 18.0875 61.108 22.2732C53.2467 25.3379 46.3788 27.8247 39.6912 32.7785Z" fill="#01AFE8" stroke="#01AFE8" stroke-width="0.216"/>
<path d="M88.1344 24.3167C88.1344 24.2104 88.1177 24.1167 88.0844 24.0354C88.0531 23.9521 87.9969 23.8771 87.9156 23.8104C87.8365 23.7438 87.726 23.6802 87.5844 23.6198C87.4448 23.5594 87.2677 23.4979 87.0531 23.4354C86.8281 23.3688 86.625 23.2948 86.4437 23.2135C86.2625 23.1302 86.1073 23.0354 85.9781 22.9292C85.849 22.8229 85.75 22.701 85.6812 22.5635C85.6125 22.426 85.5781 22.2688 85.5781 22.0917C85.5781 21.9146 85.6146 21.751 85.6875 21.601C85.7604 21.451 85.8646 21.3208 86 21.2104C86.1375 21.0979 86.301 21.0104 86.4906 20.9479C86.6802 20.8854 86.8917 20.8542 87.125 20.8542C87.4667 20.8542 87.7562 20.9198 87.9937 21.051C88.2333 21.1802 88.4156 21.35 88.5406 21.5604C88.6656 21.7688 88.7281 21.9917 88.7281 22.2292H88.1281C88.1281 22.0583 88.0917 21.9073 88.0187 21.776C87.9458 21.6427 87.8354 21.5385 87.6875 21.4635C87.5396 21.3865 87.3521 21.3479 87.125 21.3479C86.9104 21.3479 86.7333 21.3802 86.5937 21.4448C86.4542 21.5094 86.35 21.5969 86.2812 21.7073C86.2146 21.8177 86.1812 21.9438 86.1812 22.0854C86.1812 22.1813 86.201 22.2688 86.2406 22.3479C86.2823 22.425 86.3458 22.4969 86.4312 22.5635C86.5187 22.6302 86.6292 22.6917 86.7625 22.7479C86.8979 22.8042 87.0594 22.8583 87.2469 22.9104C87.5052 22.9833 87.7281 23.0646 87.9156 23.1542C88.1031 23.2438 88.2573 23.3448 88.3781 23.4573C88.501 23.5677 88.5917 23.6938 88.65 23.8354C88.7104 23.975 88.7406 24.1333 88.7406 24.3104C88.7406 24.4958 88.7031 24.6635 88.6281 24.8135C88.5531 24.9635 88.4458 25.0917 88.3062 25.1979C88.1667 25.3042 87.999 25.3865 87.8031 25.4448C87.6094 25.501 87.3927 25.5292 87.1531 25.5292C86.9427 25.5292 86.7354 25.5 86.5312 25.4417C86.3292 25.3833 86.1448 25.2958 85.9781 25.1792C85.8135 25.0625 85.6812 24.9188 85.5812 24.7479C85.4833 24.575 85.4344 24.375 85.4344 24.1479H86.0344C86.0344 24.3042 86.0646 24.4385 86.125 24.551C86.1854 24.6615 86.2677 24.7531 86.3719 24.826C86.4781 24.899 86.5979 24.9531 86.7312 24.9885C86.8667 25.0219 87.0073 25.0385 87.1531 25.0385C87.3635 25.0385 87.5417 25.0094 87.6875 24.951C87.8333 24.8927 87.9437 24.8094 88.0187 24.701C88.0958 24.5927 88.1344 24.4646 88.1344 24.3167ZM90.05 22.0854V25.4667H89.4687V22.0854H90.05ZM89.425 21.1885C89.425 21.0948 89.4531 21.0156 89.5094 20.951C89.5677 20.8865 89.6531 20.8542 89.7656 20.8542C89.876 20.8542 89.9604 20.8865 90.0187 20.951C90.0792 21.0156 90.1094 21.0948 90.1094 21.1885C90.1094 21.2781 90.0792 21.3552 90.0187 21.4198C89.9604 21.4823 89.876 21.5135 89.7656 21.5135C89.6531 21.5135 89.5677 21.4823 89.5094 21.4198C89.4531 21.3552 89.425 21.2781 89.425 21.1885ZM91.5562 22.8073V25.4667H90.9781V22.0854H91.525L91.5562 22.8073ZM91.4187 23.6479L91.1781 23.6385C91.1802 23.4073 91.2146 23.1938 91.2812 22.9979C91.3479 22.8 91.4417 22.6281 91.5625 22.4823C91.6833 22.3365 91.8271 22.224 91.9938 22.1448C92.1625 22.0635 92.349 22.0229 92.5531 22.0229C92.7198 22.0229 92.8698 22.0458 93.0031 22.0917C93.1365 22.1354 93.25 22.2063 93.3438 22.3042C93.4396 22.4021 93.5125 22.5292 93.5625 22.6854C93.6125 22.8396 93.6375 23.0281 93.6375 23.251V25.4667H93.0563V23.2448C93.0563 23.0677 93.0302 22.926 92.9781 22.8198C92.926 22.7115 92.85 22.6333 92.75 22.5854C92.65 22.5354 92.5271 22.5104 92.3813 22.5104C92.2375 22.5104 92.1063 22.5406 91.9875 22.601C91.8708 22.6615 91.7698 22.7448 91.6844 22.851C91.601 22.9573 91.5354 23.0792 91.4875 23.2167C91.4417 23.3521 91.4187 23.4958 91.4187 23.6479ZM95.8688 25.0542C96.0063 25.0542 96.1333 25.026 96.25 24.9698C96.3667 24.9135 96.4625 24.8365 96.5375 24.7385C96.6125 24.6385 96.6552 24.525 96.6656 24.3979H97.2156C97.2052 24.5979 97.1375 24.7844 97.0125 24.9573C96.8896 25.1281 96.7281 25.2667 96.5281 25.3729C96.3281 25.4771 96.1083 25.5292 95.8688 25.5292C95.6146 25.5292 95.3927 25.4844 95.2031 25.3948C95.0156 25.3052 94.8594 25.1823 94.7344 25.026C94.6115 24.8698 94.5188 24.6906 94.4563 24.4885C94.3958 24.2844 94.3656 24.0688 94.3656 23.8417V23.7104C94.3656 23.4833 94.3958 23.2688 94.4563 23.0667C94.5188 22.8625 94.6115 22.6823 94.7344 22.526C94.8594 22.3698 95.0156 22.2469 95.2031 22.1573C95.3927 22.0677 95.6146 22.0229 95.8688 22.0229C96.1333 22.0229 96.3646 22.0771 96.5625 22.1854C96.7604 22.2917 96.9156 22.4375 97.0281 22.6229C97.1427 22.8063 97.2052 23.0146 97.2156 23.2479H96.6656C96.6552 23.1083 96.6156 22.9823 96.5469 22.8698C96.4802 22.7573 96.3885 22.6677 96.2719 22.601C96.1573 22.5323 96.0229 22.4979 95.8688 22.4979C95.6917 22.4979 95.5427 22.5333 95.4219 22.6042C95.3031 22.6729 95.2083 22.7667 95.1375 22.8854C95.0688 23.0021 95.0188 23.1323 94.9875 23.276C94.9583 23.4177 94.9438 23.5625 94.9438 23.7104V23.8417C94.9438 23.9896 94.9583 24.1354 94.9875 24.2792C95.0167 24.4229 95.0656 24.5531 95.1344 24.6698C95.2052 24.7865 95.3 24.8802 95.4188 24.951C95.5396 25.0198 95.6896 25.0542 95.8688 25.0542ZM99.2688 25.5292C99.0333 25.5292 98.8198 25.4896 98.6281 25.4104C98.4385 25.3292 98.275 25.2156 98.1375 25.0698C98.0021 24.924 97.8979 24.751 97.825 24.551C97.7521 24.351 97.7156 24.1323 97.7156 23.8948V23.7635C97.7156 23.4885 97.7563 23.2438 97.8375 23.0292C97.9188 22.8125 98.0292 22.6292 98.1688 22.4792C98.3083 22.3292 98.4667 22.2156 98.6438 22.1385C98.8208 22.0615 99.0042 22.0229 99.1938 22.0229C99.4354 22.0229 99.6438 22.0646 99.8188 22.1479C99.9958 22.2313 100.141 22.3479 100.253 22.4979C100.366 22.6458 100.449 22.8208 100.503 23.0229C100.557 23.2229 100.584 23.4417 100.584 23.6792V23.9385H98.0594V23.4667H100.006V23.4229C99.9979 23.2729 99.9667 23.1271 99.9125 22.9854C99.8604 22.8438 99.7771 22.7271 99.6625 22.6354C99.5479 22.5438 99.3917 22.4979 99.1938 22.4979C99.0625 22.4979 98.9417 22.526 98.8313 22.5823C98.7208 22.6365 98.626 22.7177 98.5469 22.826C98.4677 22.9344 98.4063 23.0667 98.3625 23.2229C98.3188 23.3792 98.2969 23.5594 98.2969 23.7635V23.8948C98.2969 24.0552 98.3188 24.2063 98.3625 24.3479C98.4083 24.4875 98.474 24.6104 98.5594 24.7167C98.6469 24.8229 98.7521 24.9063 98.875 24.9667C99 25.0271 99.1417 25.0573 99.3 25.0573C99.5042 25.0573 99.6771 25.0156 99.8188 24.9323C99.9604 24.849 100.084 24.7375 100.191 24.5979L100.541 24.876C100.468 24.9865 100.375 25.0917 100.263 25.1917C100.15 25.2917 100.011 25.3729 99.8469 25.4354C99.6844 25.4979 99.4917 25.5292 99.2688 25.5292ZM88.0781 28.8917V33.4667H87.5V29.6135L86.3344 30.0385V29.5167L87.9875 28.8917H88.0781ZM90.3531 32.9823H90.4125C90.7458 32.9823 91.0167 32.9354 91.225 32.8417C91.4333 32.7479 91.5937 32.6219 91.7062 32.4635C91.8187 32.3052 91.8958 32.1271 91.9375 31.9292C91.9792 31.7292 92 31.524 92 31.3135V30.6167C92 30.4104 91.976 30.2271 91.9281 30.0667C91.8823 29.9063 91.8177 29.7719 91.7344 29.6635C91.6531 29.5552 91.5604 29.4729 91.4562 29.4167C91.3521 29.3604 91.2417 29.3323 91.125 29.3323C90.9917 29.3323 90.8719 29.3594 90.7656 29.4135C90.6615 29.4656 90.5729 29.5396 90.5 29.6354C90.4292 29.7313 90.375 29.8438 90.3375 29.9729C90.3 30.1021 90.2812 30.2427 90.2812 30.3948C90.2812 30.5302 90.2979 30.6615 90.3312 30.7885C90.3646 30.9156 90.4156 31.0302 90.4844 31.1323C90.5531 31.2344 90.6385 31.3156 90.7406 31.376C90.8448 31.4344 90.9667 31.4635 91.1062 31.4635C91.2354 31.4635 91.3562 31.4385 91.4687 31.3885C91.5833 31.3365 91.6844 31.2667 91.7719 31.1792C91.8615 31.0896 91.9323 30.9885 91.9844 30.876C92.0385 30.7635 92.0698 30.6458 92.0781 30.5229H92.3531C92.3531 30.6958 92.3187 30.8667 92.25 31.0354C92.1833 31.2021 92.0896 31.3542 91.9687 31.4917C91.8479 31.6292 91.7062 31.7396 91.5437 31.8229C91.3812 31.9042 91.2042 31.9448 91.0125 31.9448C90.7875 31.9448 90.5927 31.901 90.4281 31.8135C90.2635 31.726 90.1281 31.6094 90.0219 31.4635C89.9177 31.3177 89.8396 31.1552 89.7875 30.976C89.7375 30.7948 89.7125 30.6115 89.7125 30.426C89.7125 30.2094 89.7427 30.0063 89.8031 29.8167C89.8635 29.6271 89.9531 29.4604 90.0719 29.3167C90.1906 29.1708 90.3375 29.0573 90.5125 28.976C90.6896 28.8948 90.8937 28.8542 91.125 28.8542C91.3854 28.8542 91.6073 28.9063 91.7906 29.0104C91.974 29.1146 92.1229 29.2542 92.2375 29.4292C92.3542 29.6042 92.4396 29.801 92.4937 30.0198C92.5479 30.2385 92.575 30.4635 92.575 30.6948V30.9042C92.575 31.1396 92.5594 31.3792 92.5281 31.6229C92.499 31.8646 92.4417 32.0958 92.3562 32.3167C92.2729 32.5375 92.151 32.7354 91.9906 32.9104C91.8302 33.0833 91.6208 33.2208 91.3625 33.3229C91.1062 33.4229 90.7896 33.4729 90.4125 33.4729H90.3531V32.9823ZM96.3594 32.9917V33.4667H93.3813V33.051L94.8719 31.3917C95.0552 31.1875 95.1969 31.0146 95.2969 30.8729C95.399 30.7292 95.4698 30.601 95.5094 30.4885C95.551 30.374 95.5719 30.2573 95.5719 30.1385C95.5719 29.9885 95.5406 29.8531 95.4781 29.7323C95.4177 29.6094 95.3281 29.5115 95.2094 29.4385C95.0906 29.3656 94.9469 29.3292 94.7781 29.3292C94.576 29.3292 94.4073 29.3688 94.2719 29.4479C94.1385 29.525 94.0385 29.6333 93.9719 29.7729C93.9052 29.9125 93.8719 30.0729 93.8719 30.2542H93.2938C93.2938 29.9979 93.35 29.7635 93.4625 29.551C93.575 29.3385 93.7417 29.1698 93.9625 29.0448C94.1833 28.9177 94.4552 28.8542 94.7781 28.8542C95.0656 28.8542 95.3115 28.9052 95.5156 29.0073C95.7198 29.1073 95.876 29.249 95.9844 29.4323C96.0948 29.6135 96.15 29.826 96.15 30.0698C96.15 30.2031 96.1271 30.3385 96.0813 30.476C96.0375 30.6115 95.976 30.7469 95.8969 30.8823C95.8198 31.0177 95.7292 31.151 95.625 31.2823C95.5229 31.4135 95.4135 31.5427 95.2969 31.6698L94.0781 32.9917H96.3594ZM100.053 31.9354V32.4104H96.7656V32.0698L98.8031 28.9167H99.275L98.7688 29.8292L97.4219 31.9354H100.053ZM99.4188 28.9167V33.4667H98.8406V28.9167H99.4188Z" fill="#01afe8"/>
</svg>